<svg width="1080" height="1080" viewBox="0 0 1080 1080" fill="none" xmlns="http://www.w3.org/2000/svg">
<path d="M970.43 644.2L998.43 617.38L970.43 590.58L727.76 608.05C727.402 598.043 726.4 588.069 724.76 578.19L941.2 562.61L913.73 536.34L721.44 562.17C715.738 538.494 706.358 515.859 693.64 495.09L847.88 377.37L848.72 339.37L684.67 481.37C678.844 473.232 672.515 465.467 665.72 458.12L849.63 298.92L850.49 260.15L811.72 261.02L652.5 444.93C645.15 438.114 637.378 431.768 629.23 425.93L771.23 261.93L733.23 262.77L615.55 417C594.78 404.287 572.15 394.9 548.48 389.18L574.3 196.91L548 169.45L532.43 385.92C522.559 384.267 512.592 383.248 502.59 382.87L520.06 140.21L493.24 112.21L466.44 140.21L483.91 382.87C473.902 383.249 463.928 384.268 454.05 385.92L438.47 169.45L412.2 196.91L438 389.18C414.353 394.905 391.747 404.292 371 417L253.22 262.77L215.22 261.93L357.25 426C354.25 428.1 351.39 430.3 348.53 432.55C340.76 433.01 332.95 433.74 325.11 434.69L174.78 261L136 260.15L136.86 298.92L298.08 438.49C285.29 440.49 272.48 442.74 259.64 444.87L137.76 339.37L138.63 377.37L232.56 449.06C179.85 456.44 128.05 457.42 81.56 426.94C134.73 495.03 208.66 477.94 282.87 465C295.17 462.85 307.5 460.81 319.73 459.3C353 455.22 385.66 455 415.73 466.88C432.73 473.57 447.03 491.59 455.08 507.27C461.83 520.4 472.74 547.57 462.41 561.12C461.589 562.284 460.489 563.222 459.21 563.85C455.53 565.46 451.46 562.97 448.15 560.71C414.07 537.49 376.44 531.2 336.08 532.43C356.98 538.12 378.08 542.1 397.43 552.32C408.319 558.055 418.612 564.855 428.16 572.62C436.62 579.51 443.65 589.06 453.16 594.1C476.86 606.64 500.91 604.03 526.46 600.7C680.03 584.7 728.04 726.7 740.21 852.13C739.66 846.44 707.98 838.13 702.9 836.79C688.989 833.174 674.738 831.026 660.38 830.38C631.7 828.84 602.99 831.99 574.58 835.64C520.82 842.53 460.79 860.39 410.47 830.64C399.69 824.28 389.57 813.64 392.83 800.25C435.83 827.25 496.05 793.16 495.01 742.43C488.54 763.2 460.13 776.14 439.38 775.7C394.11 770.2 451.49 686.36 457.07 665.29C479.47 577.8 351.7 537.78 284.79 532.83C209.5 525.48 155.13 615.38 81.5 583.07C88.64 666.15 412.74 727.19 397.43 627.63C384.35 645.63 349.05 638.75 330.77 631.84C320.34 626.08 313.04 612.57 304.55 604.07C254.1 529.88 444.67 597.07 427.41 653.07C421.79 671.28 420.06 686.81 409.81 703.96C399.25 721.62 386.14 737.6 375.18 754.96C351.18 793.02 349.81 832.72 389.28 862.1C404.66 873.54 424.42 877.15 443.51 878.87C499.31 883.87 551.57 863.74 607.51 860.53C633.51 859.04 659.74 858.07 685.34 862.7C724.17 869.7 746.49 888.42 769.34 918.63C766.59 864.36 763.78 809.7 750.46 757.03C744.616 729.127 734.346 702.339 720.04 677.68C720.04 677.68 720.04 677.6 719.97 677.55C720.41 675.88 720.97 674.24 721.35 672.55L913.64 698.37L941.11 672.11L724.72 656.6C726.36 646.721 727.362 636.747 727.72 626.74L970.43 644.2ZM207.38 633C189.271 629.22 171.534 623.835 154.38 616.91C173.38 608.16 192.58 595.91 211.67 586.1C210.19 598.83 208.44 615.7 207.38 633Z" fill="#0032A0"/>
</svg>
